<svg width="34" height="35" viewBox="0 0 34 35" fill="none" xmlns="http://www.w3.org/2000/svg">
<path d="M20.8516 2.93359L20.0945 3.6873L22.2527 5.84816L23.0098 5.0918L20.8516 2.93359ZM23.3949 3.11555C23.1625 3.11289 22.9434 3.12219 22.7574 3.14145C22.7574 3.14145 22.7508 3.14211 22.7508 3.14277L26.8613 7.25133L28.9066 5.20469C27.5918 4.07379 26.0379 3.47812 24.6898 3.24105C24.318 3.17531 23.9594 3.13746 23.634 3.12219C23.5543 3.11887 23.4746 3.11621 23.3949 3.11555ZM20.0016 5.28637L4.32637 20.9682L7.23164 23.8702L7.55703 23.5448L7.98203 23.1264L11.8336 26.978L11.0832 27.7284L13.9918 30.637L29.677 14.9584L20.0016 5.28637ZM23.8598 5.93914L23.1027 6.69551L28.2625 11.8573L29.0195 11.1002L23.8598 5.93914ZM29.7566 6.05203L27.7113 8.09867L31.8219 12.2159V12.2026C31.875 11.6979 31.8551 11.0139 31.7223 10.2702C31.4832 8.92211 30.8855 7.36621 29.7566 6.05203ZM29.8695 11.9502L29.1125 12.7073L31.2707 14.8655L32.0277 14.1084L29.8695 11.9502ZM14.7488 12.7006L17 14.9518L19.2512 12.7006L22.2594 15.7088L20.0082 17.96L22.2594 20.2112L19.2512 23.2194L17 20.9682L14.7488 23.2194L11.7406 20.2112L13.9918 17.96L11.7406 15.7088L14.7488 12.7006ZM2.71867 21.0545L1.97227 21.8116L5.63391 25.4705L6.38496 24.7202L2.71867 21.0545ZM2.18211 23.7108C2.18211 23.7174 2.18145 23.7174 2.18145 23.7174C2.12965 24.2221 2.14957 24.9061 2.28106 25.6498C2.54535 27.1506 3.25391 28.9104 4.65043 30.3049C6.04695 31.7061 7.80938 32.4166 9.31016 32.6823C10.0539 32.8151 10.7379 32.835 11.2426 32.7819H11.2559L8.63946 30.1655L7.98203 30.8229L4.13313 26.978L4.79055 26.3205L2.18211 23.7108ZM7.98203 24.8131L5.82383 26.978L7.98203 29.1362L10.1469 26.978L7.98203 24.8131ZM10.2398 28.5717L9.48281 29.3221L13.1484 32.9877L13.9055 32.2373L10.2398 28.5717Z" fill="#000957"/>
</svg>
